<!DOCTYPE svg PUBLIC "-//W3C//DTD SVG 1.1//EN" "http://www.w3.org/Graphics/SVG/1.1/DTD/svg11.dtd">
<!-- Uploaded to: SVG Repo, www.svgrepo.com, Transformed by: SVG Repo Mixer Tools -->
<svg fill="#405511" height="800px" width="800px" version="1.1" id="XMLID_205_" xmlns="http://www.w3.org/2000/svg" xmlns:xlink="http://www.w3.org/1999/xlink" viewBox="-2.4 -2.4 28.80 28.80" xml:space="preserve" stroke="#405511" stroke-width="0.00024000000000000003" transform="rotate(0)">
<g id="SVGRepo_bgCarrier" stroke-width="0"/>
<g id="SVGRepo_tracerCarrier" stroke-linecap="round" stroke-linejoin="round" stroke="#CCCCCC" stroke-width="0.144"/>
<g id="SVGRepo_iconCarrier"> <g id="troubleshooting"> <g> <path d="M20.7,24h-3.5l-2.1-7H18v-4h-4v-2h2V3c0-1.7,1.3-3,3-3s3,1.3,3,3v8h2v2h-4v4h2.8L20.7,24z M18.7,22h0.6l0.9-3h-2.4 L18.7,22z M18,11h2V3c0-0.6-0.4-1-1-1s-1,0.4-1,1V11z M6,24c-0.8,0-1.6-0.3-2.1-0.9C3.3,22.6,3,21.8,3,21v-9.8c-1.8-1.1-3-3-3-5.2 c0-2.4,1.4-4.5,3.6-5.5L5,0v5h2V0l1.4,0.5C10.6,1.5,12,3.6,12,6c0,2.2-1.2,4.1-3,5.2V21C9,22.8,7.4,24,6,24z M3,3.4 C2.4,4.1,2,5.1,2,6c0,1.6,0.9,3,2.4,3.7L5,10v11c0,0.3,0.1,0.5,0.3,0.7S5.7,22,6,22c0.6,0,1-0.4,1-1V9.9l0.6-0.3 C9.1,9,10,7.6,10,6c0-1-0.4-1.9-1-2.6V7H3V3.4z"/> </g> </g> </g>
</svg>